<svg width="7" height="7" viewBox="0 0 7 7" fill="none" xmlns="http://www.w3.org/2000/svg">
<g clip-path="url(#clip0_3_112)">
<path d="M7 1.3125C7 1.99883 6.19199 3.02285 5.84336 3.43164C5.79141 3.4918 5.71484 3.51504 5.64512 3.5H4.375C4.13301 3.5 3.9375 3.69551 3.9375 3.9375C3.9375 4.17949 4.13301 4.375 4.375 4.375H5.6875C6.41211 4.375 7 4.96289 7 5.6875C7 6.41211 6.41211 7 5.6875 7H1.90859C2.02754 6.86465 2.17246 6.69102 2.31875 6.49688C2.40488 6.38203 2.49375 6.25625 2.57852 6.125H5.6875C5.92949 6.125 6.125 5.92949 6.125 5.6875C6.125 5.44551 5.92949 5.25 5.6875 5.25H4.375C3.65039 5.25 3.0625 4.66211 3.0625 3.9375C3.0625 3.21289 3.65039 2.625 4.375 2.625H4.91914C4.63203 2.19434 4.375 1.69941 4.375 1.3125C4.375 0.587891 4.96289 0 5.6875 0C6.41211 0 7 0.587891 7 1.3125ZM1.60098 6.68691C1.54902 6.7457 1.50254 6.79766 1.46289 6.84141L1.43828 6.86875L1.43555 6.86602C1.35352 6.92891 1.23594 6.9207 1.16211 6.84141C0.817578 6.4668 0 5.50293 0 4.8125C0 4.08789 0.587891 3.5 1.3125 3.5C2.03711 3.5 2.625 4.08789 2.625 4.8125C2.625 5.22266 2.33652 5.72852 2.03027 6.15098C1.88398 6.35195 1.73359 6.53379 1.60918 6.67734L1.60098 6.68691ZM1.75 4.8125C1.75 4.69647 1.70391 4.58519 1.62186 4.50314C1.53981 4.42109 1.42853 4.375 1.3125 4.375C1.19647 4.375 1.08519 4.42109 1.00314 4.50314C0.921094 4.58519 0.875 4.69647 0.875 4.8125C0.875 4.92853 0.921094 5.03981 1.00314 5.12186C1.08519 5.20391 1.19647 5.25 1.3125 5.25C1.42853 5.25 1.53981 5.20391 1.62186 5.12186C1.70391 5.03981 1.75 4.92853 1.75 4.8125ZM5.6875 1.75C5.80353 1.75 5.91481 1.70391 5.99686 1.62186C6.07891 1.53981 6.125 1.42853 6.125 1.3125C6.125 1.19647 6.07891 1.08519 5.99686 1.00314C5.91481 0.921094 5.80353 0.875 5.6875 0.875C5.57147 0.875 5.46019 0.921094 5.37814 1.00314C5.29609 1.08519 5.25 1.19647 5.25 1.3125C5.25 1.42853 5.29609 1.53981 5.37814 1.62186C5.46019 1.70391 5.57147 1.75 5.6875 1.75Z" fill="#676767"/>
</g>
<defs>
<clipPath id="clip0_3_112">
<rect width="7" height="7" fill="white"/>
</clipPath>
</defs>
</svg>
